<svg height="2926" width="720" xmlns="http://www.w3.org/2000/svg">
<rect height="2926" fill="#555" width="720"></rect>
<text fill="#7f7" font-family="Courier New" font-size="12" xml:space="preserve">
<tspan x="10" y="26">25 megabytes installed</tspan>
<tspan x="10" y="42"></tspan>
<tspan x="10" y="58">node_modules</tspan>
<tspan x="10" y="74">└─┬ node-sass@4.5.2 </tspan>
<tspan x="10" y="90">  ├── async-foreach@0.1.3 </tspan>
<tspan x="10" y="106">  ├─┬ chalk@1.1.3 </tspan>
<tspan x="10" y="122">  │ ├── ansi-styles@2.2.1 </tspan>
<tspan x="10" y="138">  │ ├── escape-string-regexp@1.0.5 </tspan>
<tspan x="10" y="154">  │ ├─┬ has-ansi@2.0.0 </tspan>
<tspan x="10" y="170">  │ │ └── ansi-regex@2.1.1 </tspan>
<tspan x="10" y="186">  │ ├── strip-ansi@3.0.1 </tspan>
<tspan x="10" y="202">  │ └── supports-color@2.0.0 </tspan>
<tspan x="10" y="218">  ├─┬ cross-spawn@3.0.1 </tspan>
<tspan x="10" y="234">  │ ├─┬ lru-cache@4.0.2 </tspan>
<tspan x="10" y="250">  │ │ ├── pseudomap@1.0.2 </tspan>
<tspan x="10" y="266">  │ │ └── yallist@2.1.2 </tspan>
<tspan x="10" y="282">  │ └─┬ which@1.2.14 </tspan>
<tspan x="10" y="298">  │   └── isexe@2.0.0 </tspan>
<tspan x="10" y="314">  ├─┬ gaze@1.1.2 </tspan>
<tspan x="10" y="330">  │ └── globule@1.1.0 </tspan>
<tspan x="10" y="346">  ├── get-stdin@4.0.1 </tspan>
<tspan x="10" y="362">  ├─┬ glob@7.1.1 </tspan>
<tspan x="10" y="378">  │ ├── fs.realpath@1.0.0 </tspan>
<tspan x="10" y="394">  │ ├─┬ inflight@1.0.6 </tspan>
<tspan x="10" y="410">  │ │ └── wrappy@1.0.2 </tspan>
<tspan x="10" y="426">  │ ├── inherits@2.0.3 </tspan>
<tspan x="10" y="442">  │ ├─┬ minimatch@3.0.3 </tspan>
<tspan x="10" y="458">  │ │ └─┬ brace-expansion@1.1.7 </tspan>
<tspan x="10" y="474">  │ │   ├── balanced-match@0.4.2 </tspan>
<tspan x="10" y="490">  │ │   └── concat-map@0.0.1 </tspan>
<tspan x="10" y="506">  │ ├── once@1.4.0 </tspan>
<tspan x="10" y="522">  │ └── path-is-absolute@1.0.1 </tspan>
<tspan x="10" y="538">  ├── in-publish@2.0.0 </tspan>
<tspan x="10" y="554">  ├── lodash.assign@4.2.0 </tspan>
<tspan x="10" y="570">  ├── lodash.clonedeep@4.5.0 </tspan>
<tspan x="10" y="586">  ├── lodash.mergewith@4.6.0 </tspan>
<tspan x="10" y="602">  ├─┬ meow@3.7.0 </tspan>
<tspan x="10" y="618">  │ ├─┬ camelcase-keys@2.1.0 </tspan>
<tspan x="10" y="634">  │ │ └── camelcase@2.1.1 </tspan>
<tspan x="10" y="650">  │ ├── decamelize@1.2.0 </tspan>
<tspan x="10" y="666">  │ ├─┬ loud-rejection@1.6.0 </tspan>
<tspan x="10" y="682">  │ │ ├─┬ currently-unhandled@0.4.1 </tspan>
<tspan x="10" y="698">  │ │ │ └── array-find-index@1.0.2 </tspan>
<tspan x="10" y="714">  │ │ └── signal-exit@3.0.2 </tspan>
<tspan x="10" y="730">  │ ├── map-obj@1.0.1 </tspan>
<tspan x="10" y="746">  │ ├── minimist@1.2.0 </tspan>
<tspan x="10" y="762">  │ ├─┬ normalize-package-data@2.3.6 </tspan>
<tspan x="10" y="778">  │ │ ├── hosted-git-info@2.4.1 </tspan>
<tspan x="10" y="794">  │ │ ├─┬ is-builtin-module@1.0.0 </tspan>
<tspan x="10" y="810">  │ │ │ └── builtin-modules@1.1.1 </tspan>
<tspan x="10" y="826">  │ │ └─┬ validate-npm-package-license@3.0.1 </tspan>
<tspan x="10" y="842">  │ │   ├─┬ spdx-correct@1.0.2 </tspan>
<tspan x="10" y="858">  │ │   │ └── spdx-license-ids@1.2.2 </tspan>
<tspan x="10" y="874">  │ │   └── spdx-expression-parse@1.0.4 </tspan>
<tspan x="10" y="890">  │ ├── object-assign@4.1.1 </tspan>
<tspan x="10" y="906">  │ ├─┬ read-pkg-up@1.0.1 </tspan>
<tspan x="10" y="922">  │ │ ├─┬ find-up@1.1.2 </tspan>
<tspan x="10" y="938">  │ │ │ ├── path-exists@2.1.0 </tspan>
<tspan x="10" y="954">  │ │ │ └─┬ pinkie-promise@2.0.1 </tspan>
<tspan x="10" y="970">  │ │ │   └── pinkie@2.0.4 </tspan>
<tspan x="10" y="986">  │ │ └─┬ read-pkg@1.1.0 </tspan>
<tspan x="10" y="1002">  │ │   ├─┬ load-json-file@1.1.0 </tspan>
<tspan x="10" y="1018">  │ │   │ ├─┬ parse-json@2.2.0 </tspan>
<tspan x="10" y="1034">  │ │   │ │ └─┬ error-ex@1.3.1 </tspan>
<tspan x="10" y="1050">  │ │   │ │   └── is-arrayish@0.2.1 </tspan>
<tspan x="10" y="1066">  │ │   │ ├── pify@2.3.0 </tspan>
<tspan x="10" y="1082">  │ │   │ └─┬ strip-bom@2.0.0 </tspan>
<tspan x="10" y="1098">  │ │   │   └── is-utf8@0.2.1 </tspan>
<tspan x="10" y="1114">  │ │   └── path-type@1.1.0 </tspan>
<tspan x="10" y="1130">  │ ├─┬ redent@1.0.0 </tspan>
<tspan x="10" y="1146">  │ │ ├─┬ indent-string@2.1.0 </tspan>
<tspan x="10" y="1162">  │ │ │ └─┬ repeating@2.0.1 </tspan>
<tspan x="10" y="1178">  │ │ │   └── is-finite@1.0.2 </tspan>
<tspan x="10" y="1194">  │ │ └── strip-indent@1.0.1 </tspan>
<tspan x="10" y="1210">  │ └── trim-newlines@1.0.0 </tspan>
<tspan x="10" y="1226">  ├─┬ mkdirp@0.5.1 </tspan>
<tspan x="10" y="1242">  │ └── minimist@0.0.8 </tspan>
<tspan x="10" y="1258">  ├── nan@2.6.1 </tspan>
<tspan x="10" y="1274">  ├─┬ node-gyp@3.6.0 </tspan>
<tspan x="10" y="1290">  │ ├── fstream@1.0.11 </tspan>
<tspan x="10" y="1306">  │ ├── graceful-fs@4.1.11 </tspan>
<tspan x="10" y="1322">  │ ├─┬ nopt@3.0.6 </tspan>
<tspan x="10" y="1338">  │ │ └── abbrev@1.1.0 </tspan>
<tspan x="10" y="1354">  │ ├─┬ osenv@0.1.4 </tspan>
<tspan x="10" y="1370">  │ │ ├── os-homedir@1.0.2 </tspan>
<tspan x="10" y="1386">  │ │ └── os-tmpdir@1.0.2 </tspan>
<tspan x="10" y="1402">  │ ├── rimraf@2.6.1 </tspan>
<tspan x="10" y="1418">  │ ├── semver@5.3.0 </tspan>
<tspan x="10" y="1434">  │ └─┬ tar@2.2.1 </tspan>
<tspan x="10" y="1450">  │   └── block-stream@0.0.9 </tspan>
<tspan x="10" y="1466">  ├─┬ npmlog@4.0.2 </tspan>
<tspan x="10" y="1482">  │ ├─┬ are-we-there-yet@1.1.2 </tspan>
<tspan x="10" y="1498">  │ │ └── delegates@1.0.0 </tspan>
<tspan x="10" y="1514">  │ ├── console-control-strings@1.1.0 </tspan>
<tspan x="10" y="1530">  │ ├─┬ gauge@2.7.3 </tspan>
<tspan x="10" y="1546">  │ │ ├── aproba@1.1.1 </tspan>
<tspan x="10" y="1562">  │ │ ├── has-unicode@2.0.1 </tspan>
<tspan x="10" y="1578">  │ │ ├─┬ string-width@1.0.2 </tspan>
<tspan x="10" y="1594">  │ │ │ ├── code-point-at@1.1.0 </tspan>
<tspan x="10" y="1610">  │ │ │ └─┬ is-fullwidth-code-point@1.0.0 </tspan>
<tspan x="10" y="1626">  │ │ │   └── number-is-nan@1.0.1 </tspan>
<tspan x="10" y="1642">  │ │ └── wide-align@1.1.0 </tspan>
<tspan x="10" y="1658">  │ └── set-blocking@2.0.0 </tspan>
<tspan x="10" y="1674">  ├─┬ request@2.81.0 </tspan>
<tspan x="10" y="1690">  │ ├── aws-sign2@0.6.0 </tspan>
<tspan x="10" y="1706">  │ ├── aws4@1.6.0 </tspan>
<tspan x="10" y="1722">  │ ├── caseless@0.12.0 </tspan>
<tspan x="10" y="1738">  │ ├─┬ combined-stream@1.0.5 </tspan>
<tspan x="10" y="1754">  │ │ └── delayed-stream@1.0.0 </tspan>
<tspan x="10" y="1770">  │ ├── extend@3.0.0 </tspan>
<tspan x="10" y="1786">  │ ├── forever-agent@0.6.1 </tspan>
<tspan x="10" y="1802">  │ ├─┬ form-data@2.1.4 </tspan>
<tspan x="10" y="1818">  │ │ └── asynckit@0.4.0 </tspan>
<tspan x="10" y="1834">  │ ├─┬ har-validator@4.2.1 </tspan>
<tspan x="10" y="1850">  │ │ ├─┬ ajv@4.11.6 </tspan>
<tspan x="10" y="1866">  │ │ │ ├── co@4.6.0 </tspan>
<tspan x="10" y="1882">  │ │ │ └─┬ json-stable-stringify@1.0.1 </tspan>
<tspan x="10" y="1898">  │ │ │   └── jsonify@0.0.0 </tspan>
<tspan x="10" y="1914">  │ │ └── har-schema@1.0.5 </tspan>
<tspan x="10" y="1930">  │ ├─┬ hawk@3.1.3 </tspan>
<tspan x="10" y="1946">  │ │ ├── boom@2.10.1 </tspan>
<tspan x="10" y="1962">  │ │ ├── cryptiles@2.0.5 </tspan>
<tspan x="10" y="1978">  │ │ ├── hoek@2.16.3 </tspan>
<tspan x="10" y="1994">  │ │ └── sntp@1.0.9 </tspan>
<tspan x="10" y="2010">  │ ├─┬ http-signature@1.1.1 </tspan>
<tspan x="10" y="2026">  │ │ ├── assert-plus@0.2.0 </tspan>
<tspan x="10" y="2042">  │ │ ├─┬ jsprim@1.4.0 </tspan>
<tspan x="10" y="2058">  │ │ │ ├── assert-plus@1.0.0 </tspan>
<tspan x="10" y="2074">  │ │ │ ├── extsprintf@1.0.2 </tspan>
<tspan x="10" y="2090">  │ │ │ ├── json-schema@0.2.3 </tspan>
<tspan x="10" y="2106">  │ │ │ └── verror@1.3.6 </tspan>
<tspan x="10" y="2122">  │ │ └─┬ sshpk@1.11.0 </tspan>
<tspan x="10" y="2138">  │ │   ├── asn1@0.2.3 </tspan>
<tspan x="10" y="2154">  │ │   ├── assert-plus@1.0.0 </tspan>
<tspan x="10" y="2170">  │ │   ├── bcrypt-pbkdf@1.0.1 </tspan>
<tspan x="10" y="2186">  │ │   ├─┬ dashdash@1.14.1 </tspan>
<tspan x="10" y="2202">  │ │   │ └── assert-plus@1.0.0 </tspan>
<tspan x="10" y="2218">  │ │   ├── ecc-jsbn@0.1.1 </tspan>
<tspan x="10" y="2234">  │ │   ├─┬ getpass@0.1.6 </tspan>
<tspan x="10" y="2250">  │ │   │ └── assert-plus@1.0.0 </tspan>
<tspan x="10" y="2266">  │ │   ├── jodid25519@1.0.2 </tspan>
<tspan x="10" y="2282">  │ │   ├── jsbn@0.1.1 </tspan>
<tspan x="10" y="2298">  │ │   └── tweetnacl@0.14.5 </tspan>
<tspan x="10" y="2314">  │ ├── is-typedarray@1.0.0 </tspan>
<tspan x="10" y="2330">  │ ├── isstream@0.1.2 </tspan>
<tspan x="10" y="2346">  │ ├── json-stringify-safe@5.0.1 </tspan>
<tspan x="10" y="2362">  │ ├─┬ mime-types@2.1.15 </tspan>
<tspan x="10" y="2378">  │ │ └── mime-db@1.27.0 </tspan>
<tspan x="10" y="2394">  │ ├── oauth-sign@0.8.2 </tspan>
<tspan x="10" y="2410">  │ ├── performance-now@0.2.0 </tspan>
<tspan x="10" y="2426">  │ ├── qs@6.4.0 </tspan>
<tspan x="10" y="2442">  │ ├── safe-buffer@5.0.1 </tspan>
<tspan x="10" y="2458">  │ ├── stringstream@0.0.5 </tspan>
<tspan x="10" y="2474">  │ ├─┬ tough-cookie@2.3.2 </tspan>
<tspan x="10" y="2490">  │ │ └── punycode@1.4.1 </tspan>
<tspan x="10" y="2506">  │ ├── tunnel-agent@0.6.0 </tspan>
<tspan x="10" y="2522">  │ └── uuid@3.0.1 </tspan>
<tspan x="10" y="2538">  ├─┬ sass-graph@2.1.2 </tspan>
<tspan x="10" y="2554">  │ ├── lodash@4.16.6 </tspan>
<tspan x="10" y="2570">  │ └─┬ yargs@4.8.1 </tspan>
<tspan x="10" y="2586">  │   ├─┬ cliui@3.2.0 </tspan>
<tspan x="10" y="2602">  │   │ └── wrap-ansi@2.1.0 </tspan>
<tspan x="10" y="2618">  │   ├── get-caller-file@1.0.2 </tspan>
<tspan x="10" y="2634">  │   ├─┬ os-locale@1.4.0 </tspan>
<tspan x="10" y="2650">  │   │ └─┬ lcid@1.0.0 </tspan>
<tspan x="10" y="2666">  │   │   └── invert-kv@1.0.0 </tspan>
<tspan x="10" y="2682">  │   ├── require-directory@2.1.1 </tspan>
<tspan x="10" y="2698">  │   ├── require-main-filename@1.0.1 </tspan>
<tspan x="10" y="2714">  │   ├── which-module@1.0.0 </tspan>
<tspan x="10" y="2730">  │   ├── window-size@0.2.0 </tspan>
<tspan x="10" y="2746">  │   ├── y18n@3.2.1 </tspan>
<tspan x="10" y="2762">  │   └─┬ yargs-parser@2.4.1 </tspan>
<tspan x="10" y="2778">  │     └── camelcase@3.0.0 </tspan>
<tspan x="10" y="2794">  └─┬ stdout-stream@1.4.0 </tspan>
<tspan x="10" y="2810">    └─┬ readable-stream@2.2.9 </tspan>
<tspan x="10" y="2826">      ├── buffer-shims@1.0.0 </tspan>
<tspan x="10" y="2842">      ├── core-util-is@1.0.2 </tspan>
<tspan x="10" y="2858">      ├── isarray@1.0.0 </tspan>
<tspan x="10" y="2874">      ├── process-nextick-args@1.0.7 </tspan>
<tspan x="10" y="2890">      ├── string_decoder@1.0.0 </tspan>
<tspan x="10" y="2906">      └── util-deprecate@1.0.2</tspan>
</text>
</svg>
